<mxfile host="app.diagrams.net" modified="2024-03-18T18:35:19.504Z" agent="Mozilla/5.0 (Windows NT 10.0; Win64; x64) AppleWebKit/537.36 (KHTML, like Gecko) Chrome/122.0.0.0 Safari/537.36" etag="wHEF02o7pgO2InEvRuFu" version="24.0.4" type="github">
  <diagram name="Page-1" id="BWioKoqMjTTC1tdOHrym">
    <mxGraphModel dx="1050" dy="557" grid="1" gridSize="10" guides="1" tooltips="1" connect="1" arrows="1" fold="1" page="1" pageScale="1" pageWidth="850" pageHeight="1100" math="0" shadow="0">
      <root>
        <mxCell id="0" />
        <mxCell id="1" parent="0" />
        <mxCell id="THwg99bvutExDF8B8xGS-1" value="Empresa" style="rounded=0;whiteSpace=wrap;html=1;" vertex="1" parent="1">
          <mxGeometry x="340" y="10" width="120" height="60" as="geometry" />
        </mxCell>
        <mxCell id="THwg99bvutExDF8B8xGS-23" style="edgeStyle=orthogonalEdgeStyle;rounded=0;orthogonalLoop=1;jettySize=auto;html=1;entryX=1;entryY=0.5;entryDx=0;entryDy=0;" edge="1" parent="1" source="THwg99bvutExDF8B8xGS-2" target="THwg99bvutExDF8B8xGS-19">
          <mxGeometry relative="1" as="geometry" />
        </mxCell>
        <mxCell id="THwg99bvutExDF8B8xGS-87" style="edgeStyle=orthogonalEdgeStyle;rounded=0;orthogonalLoop=1;jettySize=auto;html=1;" edge="1" parent="1" source="THwg99bvutExDF8B8xGS-2" target="THwg99bvutExDF8B8xGS-82">
          <mxGeometry relative="1" as="geometry" />
        </mxCell>
        <mxCell id="THwg99bvutExDF8B8xGS-88" style="edgeStyle=orthogonalEdgeStyle;rounded=0;orthogonalLoop=1;jettySize=auto;html=1;entryX=1;entryY=0.5;entryDx=0;entryDy=0;" edge="1" parent="1" source="THwg99bvutExDF8B8xGS-2" target="THwg99bvutExDF8B8xGS-83">
          <mxGeometry relative="1" as="geometry" />
        </mxCell>
        <mxCell id="THwg99bvutExDF8B8xGS-89" style="edgeStyle=orthogonalEdgeStyle;rounded=0;orthogonalLoop=1;jettySize=auto;html=1;entryX=1;entryY=0.5;entryDx=0;entryDy=0;" edge="1" parent="1" source="THwg99bvutExDF8B8xGS-2" target="THwg99bvutExDF8B8xGS-84">
          <mxGeometry relative="1" as="geometry" />
        </mxCell>
        <mxCell id="THwg99bvutExDF8B8xGS-90" style="edgeStyle=orthogonalEdgeStyle;rounded=0;orthogonalLoop=1;jettySize=auto;html=1;entryX=1;entryY=0.5;entryDx=0;entryDy=0;" edge="1" parent="1" source="THwg99bvutExDF8B8xGS-2" target="THwg99bvutExDF8B8xGS-85">
          <mxGeometry relative="1" as="geometry" />
        </mxCell>
        <mxCell id="THwg99bvutExDF8B8xGS-91" style="edgeStyle=orthogonalEdgeStyle;rounded=0;orthogonalLoop=1;jettySize=auto;html=1;entryX=1;entryY=0.5;entryDx=0;entryDy=0;" edge="1" parent="1" source="THwg99bvutExDF8B8xGS-2" target="THwg99bvutExDF8B8xGS-86">
          <mxGeometry relative="1" as="geometry" />
        </mxCell>
        <mxCell id="THwg99bvutExDF8B8xGS-2" value="Proveedores" style="rounded=0;whiteSpace=wrap;html=1;" vertex="1" parent="1">
          <mxGeometry x="170" y="390" width="120" height="60" as="geometry" />
        </mxCell>
        <mxCell id="THwg99bvutExDF8B8xGS-14" style="edgeStyle=orthogonalEdgeStyle;rounded=0;orthogonalLoop=1;jettySize=auto;html=1;entryX=0.5;entryY=0;entryDx=0;entryDy=0;" edge="1" parent="1" source="THwg99bvutExDF8B8xGS-3" target="THwg99bvutExDF8B8xGS-9">
          <mxGeometry relative="1" as="geometry" />
        </mxCell>
        <mxCell id="THwg99bvutExDF8B8xGS-34" style="edgeStyle=orthogonalEdgeStyle;rounded=0;orthogonalLoop=1;jettySize=auto;html=1;entryX=0.5;entryY=1;entryDx=0;entryDy=0;" edge="1" parent="1" source="THwg99bvutExDF8B8xGS-3" target="THwg99bvutExDF8B8xGS-28">
          <mxGeometry relative="1" as="geometry" />
        </mxCell>
        <mxCell id="THwg99bvutExDF8B8xGS-72" style="edgeStyle=orthogonalEdgeStyle;rounded=0;orthogonalLoop=1;jettySize=auto;html=1;entryX=0.5;entryY=1;entryDx=0;entryDy=0;" edge="1" parent="1" source="THwg99bvutExDF8B8xGS-3" target="THwg99bvutExDF8B8xGS-70">
          <mxGeometry relative="1" as="geometry" />
        </mxCell>
        <mxCell id="THwg99bvutExDF8B8xGS-73" style="edgeStyle=orthogonalEdgeStyle;rounded=0;orthogonalLoop=1;jettySize=auto;html=1;" edge="1" parent="1" source="THwg99bvutExDF8B8xGS-3" target="THwg99bvutExDF8B8xGS-69">
          <mxGeometry relative="1" as="geometry" />
        </mxCell>
        <mxCell id="THwg99bvutExDF8B8xGS-106" style="edgeStyle=orthogonalEdgeStyle;rounded=0;orthogonalLoop=1;jettySize=auto;html=1;entryX=0.5;entryY=0;entryDx=0;entryDy=0;" edge="1" parent="1" source="THwg99bvutExDF8B8xGS-3" target="THwg99bvutExDF8B8xGS-105">
          <mxGeometry relative="1" as="geometry" />
        </mxCell>
        <mxCell id="THwg99bvutExDF8B8xGS-3" value="Productos" style="rounded=0;whiteSpace=wrap;html=1;" vertex="1" parent="1">
          <mxGeometry x="170" y="160" width="120" height="60" as="geometry" />
        </mxCell>
        <mxCell id="THwg99bvutExDF8B8xGS-10" style="edgeStyle=orthogonalEdgeStyle;rounded=0;orthogonalLoop=1;jettySize=auto;html=1;" edge="1" parent="1" source="THwg99bvutExDF8B8xGS-4" target="THwg99bvutExDF8B8xGS-7">
          <mxGeometry relative="1" as="geometry" />
        </mxCell>
        <mxCell id="THwg99bvutExDF8B8xGS-24" style="edgeStyle=orthogonalEdgeStyle;rounded=0;orthogonalLoop=1;jettySize=auto;html=1;entryX=1;entryY=0.5;entryDx=0;entryDy=0;" edge="1" parent="1" source="THwg99bvutExDF8B8xGS-4" target="THwg99bvutExDF8B8xGS-20">
          <mxGeometry relative="1" as="geometry" />
        </mxCell>
        <mxCell id="THwg99bvutExDF8B8xGS-26" style="edgeStyle=orthogonalEdgeStyle;rounded=0;orthogonalLoop=1;jettySize=auto;html=1;" edge="1" parent="1" source="THwg99bvutExDF8B8xGS-4" target="THwg99bvutExDF8B8xGS-21">
          <mxGeometry relative="1" as="geometry" />
        </mxCell>
        <mxCell id="THwg99bvutExDF8B8xGS-55" style="edgeStyle=orthogonalEdgeStyle;rounded=0;orthogonalLoop=1;jettySize=auto;html=1;entryX=0.5;entryY=1;entryDx=0;entryDy=0;" edge="1" parent="1" source="THwg99bvutExDF8B8xGS-4" target="THwg99bvutExDF8B8xGS-54">
          <mxGeometry relative="1" as="geometry" />
        </mxCell>
        <mxCell id="THwg99bvutExDF8B8xGS-57" style="edgeStyle=orthogonalEdgeStyle;rounded=0;orthogonalLoop=1;jettySize=auto;html=1;entryX=0.5;entryY=1;entryDx=0;entryDy=0;" edge="1" parent="1" source="THwg99bvutExDF8B8xGS-4" target="THwg99bvutExDF8B8xGS-52">
          <mxGeometry relative="1" as="geometry" />
        </mxCell>
        <mxCell id="THwg99bvutExDF8B8xGS-4" value="Clientes" style="rounded=0;whiteSpace=wrap;html=1;" vertex="1" parent="1">
          <mxGeometry x="620" y="390" width="120" height="60" as="geometry" />
        </mxCell>
        <mxCell id="THwg99bvutExDF8B8xGS-12" style="edgeStyle=orthogonalEdgeStyle;rounded=0;orthogonalLoop=1;jettySize=auto;html=1;entryX=1;entryY=0.5;entryDx=0;entryDy=0;" edge="1" parent="1" source="THwg99bvutExDF8B8xGS-5" target="THwg99bvutExDF8B8xGS-8">
          <mxGeometry relative="1" as="geometry" />
        </mxCell>
        <mxCell id="THwg99bvutExDF8B8xGS-37" style="edgeStyle=orthogonalEdgeStyle;rounded=0;orthogonalLoop=1;jettySize=auto;html=1;entryX=0.5;entryY=1;entryDx=0;entryDy=0;" edge="1" parent="1" source="THwg99bvutExDF8B8xGS-5" target="THwg99bvutExDF8B8xGS-35">
          <mxGeometry relative="1" as="geometry" />
        </mxCell>
        <mxCell id="THwg99bvutExDF8B8xGS-39" style="edgeStyle=orthogonalEdgeStyle;rounded=0;orthogonalLoop=1;jettySize=auto;html=1;entryX=0.5;entryY=1;entryDx=0;entryDy=0;" edge="1" parent="1" source="THwg99bvutExDF8B8xGS-5" target="THwg99bvutExDF8B8xGS-36">
          <mxGeometry relative="1" as="geometry" />
        </mxCell>
        <mxCell id="THwg99bvutExDF8B8xGS-48" style="edgeStyle=orthogonalEdgeStyle;rounded=0;orthogonalLoop=1;jettySize=auto;html=1;entryX=0.5;entryY=1;entryDx=0;entryDy=0;" edge="1" parent="1" source="THwg99bvutExDF8B8xGS-5" target="THwg99bvutExDF8B8xGS-47">
          <mxGeometry relative="1" as="geometry" />
        </mxCell>
        <mxCell id="THwg99bvutExDF8B8xGS-50" style="edgeStyle=orthogonalEdgeStyle;rounded=0;orthogonalLoop=1;jettySize=auto;html=1;entryX=0.5;entryY=1;entryDx=0;entryDy=0;" edge="1" parent="1" source="THwg99bvutExDF8B8xGS-5" target="THwg99bvutExDF8B8xGS-45">
          <mxGeometry relative="1" as="geometry" />
        </mxCell>
        <mxCell id="THwg99bvutExDF8B8xGS-5" value="Compras" style="rounded=0;whiteSpace=wrap;html=1;" vertex="1" parent="1">
          <mxGeometry x="620" y="160" width="120" height="60" as="geometry" />
        </mxCell>
        <mxCell id="THwg99bvutExDF8B8xGS-11" style="edgeStyle=orthogonalEdgeStyle;rounded=0;orthogonalLoop=1;jettySize=auto;html=1;entryX=0.5;entryY=1;entryDx=0;entryDy=0;" edge="1" parent="1" source="THwg99bvutExDF8B8xGS-7" target="THwg99bvutExDF8B8xGS-5">
          <mxGeometry relative="1" as="geometry" />
        </mxCell>
        <mxCell id="THwg99bvutExDF8B8xGS-7" value="realiza" style="rhombus;whiteSpace=wrap;html=1;" vertex="1" parent="1">
          <mxGeometry x="640" y="280" width="80" height="80" as="geometry" />
        </mxCell>
        <mxCell id="THwg99bvutExDF8B8xGS-13" style="edgeStyle=orthogonalEdgeStyle;rounded=0;orthogonalLoop=1;jettySize=auto;html=1;entryX=1;entryY=0.5;entryDx=0;entryDy=0;" edge="1" parent="1" source="THwg99bvutExDF8B8xGS-8" target="THwg99bvutExDF8B8xGS-3">
          <mxGeometry relative="1" as="geometry" />
        </mxCell>
        <mxCell id="THwg99bvutExDF8B8xGS-8" value="incluye" style="rhombus;whiteSpace=wrap;html=1;" vertex="1" parent="1">
          <mxGeometry x="420" y="150" width="80" height="80" as="geometry" />
        </mxCell>
        <mxCell id="THwg99bvutExDF8B8xGS-15" style="edgeStyle=orthogonalEdgeStyle;rounded=0;orthogonalLoop=1;jettySize=auto;html=1;entryX=0.5;entryY=0;entryDx=0;entryDy=0;" edge="1" parent="1" source="THwg99bvutExDF8B8xGS-9" target="THwg99bvutExDF8B8xGS-2">
          <mxGeometry relative="1" as="geometry" />
        </mxCell>
        <mxCell id="THwg99bvutExDF8B8xGS-9" value="proviene" style="rhombus;whiteSpace=wrap;html=1;" vertex="1" parent="1">
          <mxGeometry x="190" y="270" width="80" height="80" as="geometry" />
        </mxCell>
        <mxCell id="THwg99bvutExDF8B8xGS-16" value="" style="rounded=0;whiteSpace=wrap;html=1;fillColor=none;" vertex="1" parent="1">
          <mxGeometry x="180" y="165" width="100" height="50" as="geometry" />
        </mxCell>
        <mxCell id="THwg99bvutExDF8B8xGS-17" value="" style="rounded=0;whiteSpace=wrap;html=1;fillColor=none;" vertex="1" parent="1">
          <mxGeometry x="630" y="165" width="100" height="50" as="geometry" />
        </mxCell>
        <mxCell id="THwg99bvutExDF8B8xGS-18" value="" style="rounded=0;whiteSpace=wrap;html=1;fillColor=none;" vertex="1" parent="1">
          <mxGeometry x="630" y="395" width="100" height="50" as="geometry" />
        </mxCell>
        <mxCell id="THwg99bvutExDF8B8xGS-19" value="NIT" style="ellipse;whiteSpace=wrap;html=1;" vertex="1" parent="1">
          <mxGeometry x="80" y="380" width="40" height="30" as="geometry" />
        </mxCell>
        <mxCell id="THwg99bvutExDF8B8xGS-20" value="&lt;u&gt;DUI&lt;/u&gt;" style="ellipse;whiteSpace=wrap;html=1;" vertex="1" parent="1">
          <mxGeometry x="407.5" y="405" width="80" height="30" as="geometry" />
        </mxCell>
        <mxCell id="THwg99bvutExDF8B8xGS-62" style="edgeStyle=orthogonalEdgeStyle;rounded=0;orthogonalLoop=1;jettySize=auto;html=1;entryX=0.5;entryY=0;entryDx=0;entryDy=0;" edge="1" parent="1" source="THwg99bvutExDF8B8xGS-21" target="THwg99bvutExDF8B8xGS-61">
          <mxGeometry relative="1" as="geometry" />
        </mxCell>
        <mxCell id="THwg99bvutExDF8B8xGS-63" style="edgeStyle=orthogonalEdgeStyle;rounded=0;orthogonalLoop=1;jettySize=auto;html=1;entryX=0.5;entryY=0;entryDx=0;entryDy=0;" edge="1" parent="1" source="THwg99bvutExDF8B8xGS-21" target="THwg99bvutExDF8B8xGS-60">
          <mxGeometry relative="1" as="geometry" />
        </mxCell>
        <mxCell id="THwg99bvutExDF8B8xGS-64" style="edgeStyle=orthogonalEdgeStyle;rounded=0;orthogonalLoop=1;jettySize=auto;html=1;entryX=0;entryY=0.5;entryDx=0;entryDy=0;" edge="1" parent="1" source="THwg99bvutExDF8B8xGS-21" target="THwg99bvutExDF8B8xGS-58">
          <mxGeometry relative="1" as="geometry" />
        </mxCell>
        <mxCell id="THwg99bvutExDF8B8xGS-66" style="edgeStyle=orthogonalEdgeStyle;rounded=0;orthogonalLoop=1;jettySize=auto;html=1;entryX=0;entryY=0.5;entryDx=0;entryDy=0;" edge="1" parent="1" source="THwg99bvutExDF8B8xGS-21" target="THwg99bvutExDF8B8xGS-59">
          <mxGeometry relative="1" as="geometry" />
        </mxCell>
        <mxCell id="THwg99bvutExDF8B8xGS-67" style="edgeStyle=orthogonalEdgeStyle;rounded=0;orthogonalLoop=1;jettySize=auto;html=1;entryX=0;entryY=0.5;entryDx=0;entryDy=0;" edge="1" parent="1" source="THwg99bvutExDF8B8xGS-21" target="THwg99bvutExDF8B8xGS-22">
          <mxGeometry relative="1" as="geometry" />
        </mxCell>
        <mxCell id="THwg99bvutExDF8B8xGS-21" value="dirección" style="ellipse;whiteSpace=wrap;html=1;" vertex="1" parent="1">
          <mxGeometry x="520" y="460" width="70" height="50" as="geometry" />
        </mxCell>
        <mxCell id="THwg99bvutExDF8B8xGS-22" value="Colonia/residencial" style="ellipse;whiteSpace=wrap;html=1;" vertex="1" parent="1">
          <mxGeometry x="660" y="530" width="110" height="30" as="geometry" />
        </mxCell>
        <mxCell id="THwg99bvutExDF8B8xGS-28" value="Código" style="ellipse;whiteSpace=wrap;html=1;fontStyle=4" vertex="1" parent="1">
          <mxGeometry x="270" y="100" width="70" height="30" as="geometry" />
        </mxCell>
        <mxCell id="THwg99bvutExDF8B8xGS-35" value="Fecha" style="ellipse;whiteSpace=wrap;html=1;" vertex="1" parent="1">
          <mxGeometry x="600" y="15" width="50" height="20" as="geometry" />
        </mxCell>
        <mxCell id="THwg99bvutExDF8B8xGS-36" value="total factura" style="ellipse;whiteSpace=wrap;html=1;dashed=1;" vertex="1" parent="1">
          <mxGeometry x="760" y="100" width="80" height="50" as="geometry" />
        </mxCell>
        <mxCell id="THwg99bvutExDF8B8xGS-45" value="Código de factura" style="ellipse;whiteSpace=wrap;html=1;fontStyle=4" vertex="1" parent="1">
          <mxGeometry x="710" y="10" width="120" height="30" as="geometry" />
        </mxCell>
        <mxCell id="THwg99bvutExDF8B8xGS-47" value="cant. productos" style="ellipse;whiteSpace=wrap;html=1;" vertex="1" parent="1">
          <mxGeometry x="650" y="50" width="90" height="30" as="geometry" />
        </mxCell>
        <mxCell id="THwg99bvutExDF8B8xGS-52" value="Nombre" style="ellipse;whiteSpace=wrap;html=1;" vertex="1" parent="1">
          <mxGeometry x="560" y="280" width="55" height="20" as="geometry" />
        </mxCell>
        <mxCell id="THwg99bvutExDF8B8xGS-53" value="Teléfonos" style="ellipse;whiteSpace=wrap;html=1;" vertex="1" parent="1">
          <mxGeometry x="480" y="270" width="60" height="30" as="geometry" />
        </mxCell>
        <mxCell id="THwg99bvutExDF8B8xGS-54" value="" style="ellipse;whiteSpace=wrap;html=1;fontColor=default;fillColor=none;" vertex="1" parent="1">
          <mxGeometry x="470" y="262.5" width="80" height="45" as="geometry" />
        </mxCell>
        <mxCell id="THwg99bvutExDF8B8xGS-58" value="Calle" style="ellipse;whiteSpace=wrap;html=1;" vertex="1" parent="1">
          <mxGeometry x="690" y="465" width="40" height="15" as="geometry" />
        </mxCell>
        <mxCell id="THwg99bvutExDF8B8xGS-59" value="# de casa" style="ellipse;whiteSpace=wrap;html=1;" vertex="1" parent="1">
          <mxGeometry x="680" y="490" width="60" height="30" as="geometry" />
        </mxCell>
        <mxCell id="THwg99bvutExDF8B8xGS-60" value="Municipio" style="ellipse;whiteSpace=wrap;html=1;" vertex="1" parent="1">
          <mxGeometry x="405" y="535" width="85" height="30" as="geometry" />
        </mxCell>
        <mxCell id="THwg99bvutExDF8B8xGS-61" value="Departamento" style="ellipse;whiteSpace=wrap;html=1;" vertex="1" parent="1">
          <mxGeometry x="520" y="560" width="90" height="40" as="geometry" />
        </mxCell>
        <mxCell id="THwg99bvutExDF8B8xGS-69" value="Nombre" style="ellipse;whiteSpace=wrap;html=1;" vertex="1" parent="1">
          <mxGeometry x="240" width="50" height="30" as="geometry" />
        </mxCell>
        <mxCell id="THwg99bvutExDF8B8xGS-70" value="Precio actual" style="ellipse;whiteSpace=wrap;html=1;" vertex="1" parent="1">
          <mxGeometry x="150" y="40" width="80" height="30" as="geometry" />
        </mxCell>
        <mxCell id="THwg99bvutExDF8B8xGS-76" value="Nombre" style="ellipse;whiteSpace=wrap;html=1;" vertex="1" parent="1">
          <mxGeometry x="10" y="312.5" width="60" height="22.5" as="geometry" />
        </mxCell>
        <mxCell id="THwg99bvutExDF8B8xGS-79" value="Descripción" style="ellipse;whiteSpace=wrap;html=1;" vertex="1" parent="1">
          <mxGeometry x="10" y="340" width="80" height="27" as="geometry" />
        </mxCell>
        <mxCell id="THwg99bvutExDF8B8xGS-82" value="Nombre" style="ellipse;whiteSpace=wrap;html=1;" vertex="1" parent="1">
          <mxGeometry x="70" y="435" width="60" height="25" as="geometry" />
        </mxCell>
        <mxCell id="THwg99bvutExDF8B8xGS-83" value="Dirección" style="ellipse;whiteSpace=wrap;html=1;" vertex="1" parent="1">
          <mxGeometry x="70" y="470" width="60" height="30" as="geometry" />
        </mxCell>
        <mxCell id="THwg99bvutExDF8B8xGS-84" value="Teléfono" style="ellipse;whiteSpace=wrap;html=1;" vertex="1" parent="1">
          <mxGeometry x="70" y="510" width="60" height="35" as="geometry" />
        </mxCell>
        <mxCell id="THwg99bvutExDF8B8xGS-85" value="Email" style="ellipse;whiteSpace=wrap;html=1;" vertex="1" parent="1">
          <mxGeometry x="75" y="550" width="50" height="35" as="geometry" />
        </mxCell>
        <mxCell id="THwg99bvutExDF8B8xGS-86" value="Página web" style="ellipse;whiteSpace=wrap;html=1;" vertex="1" parent="1">
          <mxGeometry x="65" y="600" width="70" height="40" as="geometry" />
        </mxCell>
        <mxCell id="THwg99bvutExDF8B8xGS-92" value="1:N" style="text;html=1;align=center;verticalAlign=middle;whiteSpace=wrap;rounded=0;" vertex="1" parent="1">
          <mxGeometry x="720" y="305" width="60" height="30" as="geometry" />
        </mxCell>
        <mxCell id="THwg99bvutExDF8B8xGS-93" value="M:N" style="text;html=1;align=center;verticalAlign=middle;whiteSpace=wrap;rounded=0;" vertex="1" parent="1">
          <mxGeometry x="430" y="120" width="60" height="30" as="geometry" />
        </mxCell>
        <mxCell id="THwg99bvutExDF8B8xGS-94" value="M:N" style="text;html=1;align=center;verticalAlign=middle;whiteSpace=wrap;rounded=0;" vertex="1" parent="1">
          <mxGeometry x="260" y="295" width="60" height="30" as="geometry" />
        </mxCell>
        <mxCell id="THwg99bvutExDF8B8xGS-102" style="edgeStyle=orthogonalEdgeStyle;rounded=0;orthogonalLoop=1;jettySize=auto;html=1;entryX=1;entryY=0.5;entryDx=0;entryDy=0;" edge="1" parent="1" source="THwg99bvutExDF8B8xGS-96" target="THwg99bvutExDF8B8xGS-79">
          <mxGeometry relative="1" as="geometry" />
        </mxCell>
        <mxCell id="THwg99bvutExDF8B8xGS-103" style="edgeStyle=orthogonalEdgeStyle;rounded=0;orthogonalLoop=1;jettySize=auto;html=1;entryX=1;entryY=0.5;entryDx=0;entryDy=0;" edge="1" parent="1" source="THwg99bvutExDF8B8xGS-96" target="THwg99bvutExDF8B8xGS-76">
          <mxGeometry relative="1" as="geometry" />
        </mxCell>
        <mxCell id="THwg99bvutExDF8B8xGS-96" value="Categoría" style="rounded=1;whiteSpace=wrap;html=1;" vertex="1" parent="1">
          <mxGeometry x="30" y="235" width="120" height="60" as="geometry" />
        </mxCell>
        <mxCell id="THwg99bvutExDF8B8xGS-110" style="edgeStyle=orthogonalEdgeStyle;rounded=0;orthogonalLoop=1;jettySize=auto;html=1;entryX=0.5;entryY=0;entryDx=0;entryDy=0;" edge="1" parent="1" source="THwg99bvutExDF8B8xGS-105" target="THwg99bvutExDF8B8xGS-96">
          <mxGeometry relative="1" as="geometry" />
        </mxCell>
        <mxCell id="THwg99bvutExDF8B8xGS-105" value="tiene" style="rhombus;whiteSpace=wrap;html=1;" vertex="1" parent="1">
          <mxGeometry x="50" y="100" width="80" height="80" as="geometry" />
        </mxCell>
        <mxCell id="THwg99bvutExDF8B8xGS-111" value="(0,N)" style="text;html=1;align=center;verticalAlign=middle;whiteSpace=wrap;rounded=0;" vertex="1" parent="1">
          <mxGeometry x="690" y="360" width="60" height="30" as="geometry" />
        </mxCell>
        <mxCell id="THwg99bvutExDF8B8xGS-112" value="(1:1)" style="text;html=1;align=center;verticalAlign=middle;whiteSpace=wrap;rounded=0;" vertex="1" parent="1">
          <mxGeometry x="680" y="240" width="60" height="30" as="geometry" />
        </mxCell>
        <mxCell id="THwg99bvutExDF8B8xGS-113" value="(1:N)" style="text;html=1;align=center;verticalAlign=middle;whiteSpace=wrap;rounded=0;" vertex="1" parent="1">
          <mxGeometry x="535" y="165" width="60" height="30" as="geometry" />
        </mxCell>
        <mxCell id="THwg99bvutExDF8B8xGS-114" value="(0:N)" style="text;html=1;align=center;verticalAlign=middle;whiteSpace=wrap;rounded=0;" vertex="1" parent="1">
          <mxGeometry x="330" y="165" width="60" height="30" as="geometry" />
        </mxCell>
        <mxCell id="THwg99bvutExDF8B8xGS-115" value="(1:1)" style="text;html=1;align=center;verticalAlign=middle;whiteSpace=wrap;rounded=0;" vertex="1" parent="1">
          <mxGeometry x="230" y="230" width="60" height="30" as="geometry" />
        </mxCell>
        <mxCell id="THwg99bvutExDF8B8xGS-116" value="(1:N)" style="text;html=1;align=center;verticalAlign=middle;whiteSpace=wrap;rounded=0;" vertex="1" parent="1">
          <mxGeometry x="230" y="350" width="60" height="30" as="geometry" />
        </mxCell>
        <mxCell id="THwg99bvutExDF8B8xGS-117" value="1:N" style="text;html=1;align=center;verticalAlign=middle;whiteSpace=wrap;rounded=0;" vertex="1" parent="1">
          <mxGeometry y="125" width="60" height="30" as="geometry" />
        </mxCell>
        <mxCell id="THwg99bvutExDF8B8xGS-118" value="(1:1)" style="text;html=1;align=center;verticalAlign=middle;whiteSpace=wrap;rounded=0;" vertex="1" parent="1">
          <mxGeometry x="75" y="50" width="60" height="30" as="geometry" />
        </mxCell>
        <mxCell id="THwg99bvutExDF8B8xGS-120" value="(1:N)" style="text;html=1;align=center;verticalAlign=middle;whiteSpace=wrap;rounded=0;" vertex="1" parent="1">
          <mxGeometry x="30" y="190" width="60" height="30" as="geometry" />
        </mxCell>
      </root>
    </mxGraphModel>
  </diagram>
</mxfile>
